<?xml version="1.0" encoding="UTF-8" standalone="no"?>
<!DOCTYPE svg PUBLIC "-//W3C//DTD SVG 1.1//EN" "http://www.w3.org/Graphics/SVG/1.1/DTD/svg11.dtd">
<svg width="100%" height="100%" viewBox="0 0 1024 1024" version="1.1" xmlns="http://www.w3.org/2000/svg" xmlns:xlink="http://www.w3.org/1999/xlink" xml:space="preserve" xmlns:serif="http://www.serif.com/" style="fill-rule:evenodd;clip-rule:evenodd;stroke-linejoin:round;stroke-miterlimit:2;">
    <rect x="75.914" y="94.743" width="850.977" height="814.49" style="fill:white;"/>
    <g transform="matrix(0.1,0,0,-0.1,0,1024)">
        <path d="M0,8240L0,2000C-0,1469.57 210.714,960.859 585.786,585.786C960.859,210.714 1469.57,-0 2000,0C3436.34,0 6803.66,0 8240,0C8770.43,-0 9279.14,210.714 9654.21,585.786C10029.3,960.859 10240,1469.57 10240,2000C10240,3436.34 10240,6803.66 10240,8240C10240,8770.43 10029.3,9279.14 9654.21,9654.21C9279.14,10029.3 8770.43,10240 8240,10240L2000,10240C1469.57,10240 960.859,10029.3 585.786,9654.21C210.714,9279.14 -0,8770.43 0,8240ZM5379,8484C5544,8454 5588,8432 6106,8122C6475,7901 6667,7787 7470,7312C7894,7062 7925,7042 8001,6972C8113,6869 8188,6758 8232,6630C8242,6600 8271,6476 8295,6355C8342,6124 8467,5525 8545,5160C8570,5042 8606,4871 8625,4780C8644,4689 8675,4539 8695,4445C8827,3824 8830,3746 8728,3541C8680,3446 8593,3350 8495,3284C8462,3262 8334,3184 8210,3110C8086,3037 7798,2866 7570,2730C7342,2594 7067,2431 6960,2368C6853,2305 6599,2155 6395,2035C6192,1915 5953,1774 5865,1722C5777,1670 5677,1614 5642,1598C5448,1509 5155,1480 4938,1529C4873,1544 4744,1588 4701,1610C4668,1626 4092,1964 3955,2047C3928,2064 3817,2129 3710,2192C3603,2256 3211,2486 2840,2705C2469,2924 2101,3141 2023,3187C1846,3291 1755,3362 1695,3442C1600,3568 1560,3684 1560,3832C1560,3920 1580,4036 1675,4485C1700,4606 1736,4777 1755,4865C1773,4953 1814,5144 1845,5290C1876,5436 1914,5618 1930,5695C1946,5772 1982,5945 2010,6080C2038,6215 2072,6383 2086,6455C2129,6672 2185,6790 2314,6928C2393,7012 2439,7044 2795,7257C2960,7356 3327,7577 3610,7747C4787,8455 4734,8425 4911,8471C5064,8511 5209,8515 5379,8484Z" style="fill-rule:nonzero;"/>
        <path d="M5183.18,4796.37L5183.18,4796.36C5072.79,4795.51 4963.3,4820.82 4870,4872C4840,4889 4536,5069 4195,5273C2866,6067 2932,6026 2876,6092C2786,6197 2756,6286 2762,6434C2765,6526 2769,6543 2799,6606C2854,6716 2912,6764 3206,6940C3348,7025 3499,7115 3540,7141C3581,7166 3723,7251 3855,7330C3987,7409 4167,7517 4255,7570C4815,7908 4915,7962 5026,7985C5064.07,7992.97 5120.76,7996.43 5179.06,7995.9C5238.51,7996.59 5296.61,7993.15 5335.39,7985.03C5446.39,7962.03 5546.39,7908.03 6106.39,7570.03C6194.39,7517.03 6374.39,7409.03 6506.39,7330.03C6638.39,7251.03 6780.39,7166.03 6821.39,7141.03C6862.39,7115.03 7013.39,7025.03 7155.39,6940.03C7449.39,6764.03 7507.39,6716.03 7562.39,6606.03C7592.39,6543.03 7596.39,6526.03 7599.39,6434.03C7605.39,6286.03 7575.39,6197.03 7485.39,6092.03C7429.39,6026.03 7495.39,6067.03 6166.39,5273.03C5825.39,5069.03 5521.39,4889.03 5491.39,4872.03C5399.5,4821.62 5291.89,4796.3 5183.18,4796.37ZM5178.21,7667.1C5017.18,7667.89 5006.02,7665.77 4980,7633C4962,7609 4960,7593 4960,7428C4960,7294 4957,7249 4948,7246C4831,7215 4770,7195 4728,7175C4699,7161 4669,7150 4660,7150C4646,7150 4563,7203 4383,7329C4303,7386 4284,7382 4160,7287C4053,7205 4023,7163 4035,7103C4043,7060 4064,7040 4190,6955C4328,6862 4326,6865 4291,6799C4275,6769 4256,6726 4249,6703L4237,6660L4011,6660C3697,6660 3692,6656 3691,6452C3690,6340 3703,6293 3741,6266C3761,6252 3799,6250 4001,6250L4238,6250L4245,6223C4248,6208 4267,6162 4286,6121C4305,6080 4319,6046 4318,6045C4316,6045 4259,6004 4191,5954C4032,5840 4014,5812 4041,5718C4051,5680 4119,5617 4224,5546C4286,5504 4310,5510 4429,5597C4487,5639 4564,5694 4599,5718L4662,5763L4709,5740C4734,5727 4800,5702 4855,5685L4955,5653L4958,5479C4960,5306 4961,5305 4987,5278L5014,5250L5178.21,5250L5178.21,5250.03L5347.39,5250.03L5374.39,5278.03C5400.39,5305.03 5401.39,5306.03 5403.39,5479.03L5406.39,5653.03L5506.39,5685.03C5561.39,5702.03 5627.39,5727.03 5652.39,5740.03L5699.39,5763.03L5762.39,5718.03C5797.39,5694.03 5874.39,5639.03 5932.39,5597.03C6051.39,5510.03 6075.39,5504.03 6137.39,5546.03C6242.39,5617.03 6310.39,5680.03 6320.39,5718.03C6347.39,5812.03 6329.39,5840.03 6170.39,5954.03C6102.39,6004.03 6045.39,6045.03 6043.39,6045.03C6042.39,6046.03 6056.39,6080.03 6075.39,6121.03C6094.39,6162.03 6113.39,6208.03 6116.39,6223.03L6123.39,6250.03L6360.39,6250.03C6562.39,6250.03 6600.39,6252.03 6620.39,6266.03C6658.39,6293.03 6671.39,6340.03 6670.39,6452.03C6669.39,6656.03 6664.39,6660.03 6350.39,6660.03L6124.39,6660.03L6112.39,6703.03C6105.39,6726.03 6086.39,6769.03 6070.39,6799.03C6035.39,6865.03 6033.39,6862.03 6171.39,6955.03C6297.39,7040.03 6318.39,7060.03 6326.39,7103.03C6338.39,7163.03 6308.39,7205.03 6201.39,7287.03C6077.39,7382.03 6058.39,7386.03 5978.39,7329.03C5798.39,7203.03 5715.39,7150.03 5701.39,7150.03C5692.39,7150.03 5662.39,7161.03 5633.39,7175.03C5591.39,7195.03 5530.39,7215.03 5413.39,7246.03C5404.39,7249.03 5401.39,7294.03 5401.39,7428.03C5401.39,7593.03 5399.39,7609.03 5381.39,7633.03C5355.37,7665.8 5344.21,7667.91 5183.18,7667.13L5183.18,7667.07C5181.51,7667.08 5179.85,7667.1 5178.21,7667.1Z"/>
        <path d="M5180.7,5989.19C5129.28,5988.91 5076.99,5994.03 5025,6005C4798,6053 4619,6229 4603,6420C4582,6664 4773,6864 5078,6920C5102.61,6924.61 5139.93,6926.27 5180.7,6925.48C5221.47,6926.27 5258.79,6924.61 5283.39,6920C5588.39,6864 5779.39,6664 5758.39,6420C5742.39,6229 5563.39,6053 5336.39,6005C5284.4,5994.03 5232.12,5988.91 5180.7,5989.19Z"/>
        <path d="M2463,5650C2445,5640 2424,5618 2417,5603C2409,5588 2382,5476 2357,5355C2332,5234 2288,5025 2260,4890C2232,4755 2205,4625 2200,4600C2195,4575 2175,4479 2155,4385C2052,3905 2046,3847 2084,3768C2123,3687 2161,3661 2785,3295C2868,3247 2994,3173 3065,3130C3137,3088 3249,3021 3315,2983C3381,2944 3579,2827 3755,2723C3931,2618 4102,2517 4135,2498C4168,2479 4283,2412 4390,2348C4843,2081 4865,2070 4977,2038C5039,2020 5081,2016 5180,2016C5377,2016 5455,2044 5770,2231C5855,2282 6006,2371 6105,2430C6204,2488 6330,2563 6385,2595C6440,2627 6550,2692 6630,2740C6710,2787 6865,2880 6975,2945C7085,3010 7403,3200 7682,3367C8229,3695 8252,3712 8286,3812C8312,3892 8317,3867 8125,4775C8083,4973 8029,5232 8005,5350C7980,5468 7953,5580 7945,5598C7926,5639 7876,5670 7826,5670C7784,5670 7730,5643 7555,5535C7500,5501 7377,5426 7281,5369C7185,5312 6926,5156 6706,5023C6019,4609 5656,4393 5620,4377C5460,4305 5361,4285 5175,4286C4986,4287 4879,4313 4727,4392C4671,4422 4315,4632 3935,4859C2441,5754 2587,5670 2528,5670C2510,5670 2481,5661 2463,5650Z" style="fill-rule:nonzero;"/>
    </g>
</svg>
